<?xml version="1.0" encoding="utf-8"?>
<!-- Generator: Adobe Illustrator 18.1.1, SVG Export Plug-In . SVG Version: 6.00 Build 0)  -->
<svg version="1.1" id="Layer_1" xmlns="http://www.w3.org/2000/svg" xmlns:xlink="http://www.w3.org/1999/xlink" x="0px" y="0px"
	 viewBox="83.8 576 150 50" enable-background="new 83.8 576 150 50" xml:space="preserve">
<g>
	<g>
		<path stroke="#939393" stroke-width="0.5" stroke-miterlimit="10" d="M230.8,623H88.3c-1.7,0-3-1.3-3-3v-36.4c0-1.7,1.3-3,3-3
			h142.5c1.7,0,3,1.3,3,3V620C233.8,621.7,232.4,623,230.8,623z"/>
		<linearGradient id="SVGID_1_" gradientUnits="userSpaceOnUse" x1="196.2686" y1="557.7543" x2="197.0409" y2="607.2742">
			<stop  offset="0" style="stop-color:#FFFFFF"/>
			<stop  offset="1" style="stop-color:#000000;stop-opacity:0.2"/>
		</linearGradient>
		<path fill="url(#SVGID_1_)" d="M230,623h-43.6l-26.9-42.4H230c2.1,0,3.7,1.7,3.7,3.7v34.9C233.8,621.3,232.1,623,230,623z"/>
	</g>
</g>
<path fill="#FFFFFF" d="M114.5,596c0,0-7.2-4.3-10.2,3.9c-3,8.2,5.1,14.8,5.1,14.8s2.2,0.9,3.6-0.7c1.4-1.5,4.2,0.2,4.2,0.2
	s2.3,1.4,3.9-0.3s3.1-3.8,3.9-5.8c0,0-7.2-4.7-0.7-10.6C124.4,597.5,121.8,592.4,114.5,596z"/>
<path fill="#FFFFFF" d="M114.3,594.7c0,0-0.5-4.8,5.2-6.2C119.5,588.5,120.6,594.1,114.3,594.7z"/>
<g>
	<path fill="#FFFFFF" stroke="#FFFFFF" stroke-width="0.5" stroke-miterlimit="10" d="M141.3,594.2l-0.6,1.8h-0.8l1.9-5.7h0.9
		l1.9,5.7h-0.8l-0.6-1.8H141.3z M143.2,593.6l-0.6-1.6c-0.1-0.4-0.2-0.7-0.3-1h0c-0.1,0.3-0.2,0.7-0.3,1l-0.6,1.6H143.2z"/>
	<path fill="#FFFFFF" stroke="#FFFFFF" stroke-width="0.5" stroke-miterlimit="10" d="M145.6,591.9l0.8,2.3c0.1,0.4,0.2,0.7,0.3,1h0
		c0.1-0.3,0.2-0.7,0.3-1l0.8-2.3h0.8l-1.6,4.1h-0.7l-1.6-4.1H145.6z"/>
	<path fill="#FFFFFF" stroke="#FFFFFF" stroke-width="0.5" stroke-miterlimit="10" d="M151.6,596l-0.1-0.5h0
		c-0.2,0.3-0.7,0.6-1.2,0.6c-0.8,0-1.2-0.6-1.2-1.2c0-1,0.9-1.5,2.5-1.5v-0.1c0-0.3-0.1-0.9-0.9-0.9c-0.4,0-0.8,0.1-1.1,0.3
		l-0.2-0.5c0.3-0.2,0.8-0.4,1.3-0.4c1.2,0,1.6,0.9,1.6,1.7v1.5c0,0.4,0,0.7,0.1,1H151.6z M151.5,593.9c-0.8,0-1.7,0.1-1.7,0.9
		c0,0.5,0.3,0.7,0.7,0.7c0.5,0,0.9-0.3,1-0.7c0-0.1,0-0.2,0-0.2V593.9z"/>
	<path fill="#FFFFFF" stroke="#FFFFFF" stroke-width="0.5" stroke-miterlimit="10" d="M154.3,590.7c0,0.3-0.2,0.5-0.5,0.5
		c-0.3,0-0.4-0.2-0.4-0.5c0-0.3,0.2-0.5,0.5-0.5C154.1,590.3,154.3,590.5,154.3,590.7z M153.4,596v-4.1h0.7v4.1H153.4z"/>
	<path fill="#FFFFFF" stroke="#FFFFFF" stroke-width="0.5" stroke-miterlimit="10" d="M155.4,590h0.7v6h-0.7V590z"/>
	<path fill="#FFFFFF" stroke="#FFFFFF" stroke-width="0.5" stroke-miterlimit="10" d="M159.7,596l-0.1-0.5h0
		c-0.2,0.3-0.7,0.6-1.2,0.6c-0.8,0-1.2-0.6-1.2-1.2c0-1,0.9-1.5,2.5-1.5v-0.1c0-0.3-0.1-0.9-0.9-0.9c-0.4,0-0.8,0.1-1.1,0.3
		l-0.2-0.5c0.3-0.2,0.8-0.4,1.3-0.4c1.2,0,1.6,0.9,1.6,1.7v1.5c0,0.4,0,0.7,0.1,1H159.7z M159.5,593.9c-0.8,0-1.7,0.1-1.7,0.9
		c0,0.5,0.3,0.7,0.7,0.7c0.5,0,0.9-0.3,1-0.7c0-0.1,0-0.2,0-0.2V593.9z"/>
	<path fill="#FFFFFF" stroke="#FFFFFF" stroke-width="0.5" stroke-miterlimit="10" d="M161.4,596c0-0.3,0-0.7,0-1.1V590h0.7v2.6h0
		c0.3-0.5,0.7-0.8,1.4-0.8c1,0,1.7,0.8,1.7,2.1c0,1.5-0.9,2.2-1.8,2.2c-0.6,0-1.1-0.2-1.4-0.8h0l0,0.7H161.4z M162.2,594.3
		c0,0.1,0,0.2,0,0.3c0.1,0.5,0.6,0.9,1.1,0.9c0.8,0,1.2-0.6,1.2-1.6c0-0.8-0.4-1.5-1.2-1.5c-0.5,0-1,0.3-1.1,0.9c0,0.1,0,0.2,0,0.3
		V594.3z"/>
	<path fill="#FFFFFF" stroke="#FFFFFF" stroke-width="0.5" stroke-miterlimit="10" d="M166.3,590h0.7v6h-0.7V590z"/>
	<path fill="#FFFFFF" stroke="#FFFFFF" stroke-width="0.5" stroke-miterlimit="10" d="M168.7,594.1c0,1,0.7,1.4,1.4,1.4
		c0.5,0,0.9-0.1,1.1-0.2l0.1,0.5c-0.3,0.1-0.7,0.3-1.4,0.3c-1.3,0-2-0.8-2-2.1c0-1.2,0.7-2.2,1.9-2.2c1.3,0,1.7,1.2,1.7,1.9
		c0,0.2,0,0.3,0,0.3H168.7z M170.8,593.5c0-0.5-0.2-1.2-1-1.2c-0.8,0-1.1,0.7-1.1,1.2H170.8z"/>
	<path fill="#FFFFFF" stroke="#FFFFFF" stroke-width="0.5" stroke-miterlimit="10" d="M178,593.9c0,1.5-1,2.2-2,2.2
		c-1.1,0-2-0.8-2-2.1c0-1.4,0.9-2.2,2-2.2C177.2,591.8,178,592.7,178,593.9z M174.7,593.9c0,0.9,0.5,1.6,1.2,1.6
		c0.7,0,1.2-0.7,1.2-1.6c0-0.7-0.3-1.6-1.2-1.6C175.1,592.4,174.7,593.2,174.7,593.9z"/>
	<path fill="#FFFFFF" stroke="#FFFFFF" stroke-width="0.5" stroke-miterlimit="10" d="M178.9,593c0-0.4,0-0.8,0-1.1h0.7l0,0.7h0
		c0.2-0.4,0.7-0.8,1.4-0.8c0.6,0,1.4,0.3,1.4,1.7v2.4h-0.7v-2.4c0-0.7-0.2-1.2-0.9-1.2c-0.5,0-0.9,0.3-1,0.8c0,0.1-0.1,0.2-0.1,0.3
		v2.5h-0.7V593z"/>
	<path fill="#FFFFFF" stroke="#FFFFFF" stroke-width="0.5" stroke-miterlimit="10" d="M186.3,590.7v1.2h1.1v0.6h-1.1v2.2
		c0,0.5,0.1,0.8,0.6,0.8c0.2,0,0.3,0,0.4-0.1l0,0.6c-0.1,0.1-0.4,0.1-0.7,0.1c-0.3,0-0.6-0.1-0.8-0.3c-0.2-0.2-0.3-0.6-0.3-1.1v-2.2
		h-0.6v-0.6h0.6v-1L186.3,590.7z"/>
	<path fill="#FFFFFF" stroke="#FFFFFF" stroke-width="0.5" stroke-miterlimit="10" d="M188.2,590h0.7v2.5h0c0.1-0.2,0.3-0.4,0.5-0.5
		c0.2-0.1,0.5-0.2,0.8-0.2c0.5,0,1.4,0.3,1.4,1.7v2.4h-0.7v-2.3c0-0.7-0.2-1.2-0.9-1.2c-0.5,0-0.9,0.3-1,0.7c0,0.1-0.1,0.2-0.1,0.4
		v2.5h-0.7V590z"/>
	<path fill="#FFFFFF" stroke="#FFFFFF" stroke-width="0.5" stroke-miterlimit="10" d="M193.3,594.1c0,1,0.7,1.4,1.4,1.4
		c0.5,0,0.9-0.1,1.1-0.2l0.1,0.5c-0.3,0.1-0.7,0.3-1.4,0.3c-1.3,0-2-0.8-2-2.1c0-1.2,0.7-2.2,1.9-2.2c1.3,0,1.7,1.2,1.7,1.9
		c0,0.2,0,0.3,0,0.3H193.3z M195.4,593.5c0-0.5-0.2-1.2-1-1.2c-0.8,0-1.1,0.7-1.1,1.2H195.4z"/>
</g>
<g>
	<path fill="#FFFFFF" d="M138.1,609.8l-1.4,4.2H135l4.5-13.4h2.1l4.5,13.4h-1.8l-1.4-4.2H138.1z M142.5,608.5l-1.3-3.8
		c-0.3-0.9-0.5-1.7-0.7-2.4h0c-0.2,0.8-0.4,1.6-0.7,2.4l-1.3,3.9H142.5z"/>
	<path fill="#FFFFFF" d="M147.9,607.6c0-1.2,0-2.2-0.1-3.1h1.5l0.1,1.6h0c0.7-1.2,1.8-1.9,3.4-1.9c2.3,0,4,2,4,4.9
		c0,3.4-2.1,5.2-4.3,5.2c-1.3,0-2.4-0.6-2.9-1.5h0v5.2h-1.7V607.6z M149.6,610.1c0,0.3,0,0.5,0.1,0.7c0.3,1.2,1.4,2,2.6,2
		c1.8,0,2.9-1.5,2.9-3.7c0-1.9-1-3.6-2.8-3.6c-1.2,0-2.3,0.9-2.6,2.2c-0.1,0.2-0.1,0.5-0.1,0.7V610.1z"/>
	<path fill="#FFFFFF" d="M159,607.6c0-1.2,0-2.2-0.1-3.1h1.5l0.1,1.6h0c0.7-1.2,1.8-1.9,3.4-1.9c2.3,0,4,2,4,4.9
		c0,3.4-2.1,5.2-4.3,5.2c-1.3,0-2.4-0.6-2.9-1.5h0v5.2H159V607.6z M160.8,610.1c0,0.3,0,0.5,0.1,0.7c0.3,1.2,1.4,2,2.6,2
		c1.8,0,2.9-1.5,2.9-3.7c0-1.9-1-3.6-2.8-3.6c-1.2,0-2.3,0.9-2.6,2.2c-0.1,0.2-0.1,0.5-0.1,0.7V610.1z"/>
	<path fill="#FFFFFF" d="M174.2,611.9c0.8,0.5,1.9,0.9,3.1,0.9c1.7,0,2.8-0.9,2.8-2.3c0-1.2-0.7-2-2.5-2.7c-2.2-0.8-3.5-1.9-3.5-3.8
		c0-2.1,1.7-3.6,4.3-3.6c1.4,0,2.3,0.3,2.9,0.7l-0.5,1.4c-0.4-0.2-1.3-0.6-2.5-0.6c-1.8,0-2.5,1.1-2.5,2c0,1.2,0.8,1.9,2.6,2.6
		c2.2,0.9,3.4,2,3.4,3.9c0,2.1-1.5,3.8-4.6,3.8c-1.3,0-2.7-0.4-3.4-0.9L174.2,611.9z"/>
	<path fill="#FFFFFF" d="M186,601.7v2.8h2.5v1.3H186v5.2c0,1.2,0.3,1.9,1.3,1.9c0.5,0,0.8-0.1,1-0.1l0.1,1.3
		c-0.3,0.1-0.9,0.2-1.5,0.2c-0.8,0-1.5-0.3-1.9-0.7c-0.5-0.5-0.7-1.4-0.7-2.5v-5.2h-1.5v-1.3h1.5v-2.3L186,601.7z"/>
	<path fill="#FFFFFF" d="M198.9,609.2c0,3.5-2.4,5.1-4.7,5.1c-2.6,0-4.5-1.9-4.5-4.9c0-3.2,2.1-5.1,4.7-5.1
		C197.1,604.2,198.9,606.2,198.9,609.2z M191.4,609.3c0,2.1,1.2,3.7,2.9,3.7c1.6,0,2.9-1.6,2.9-3.7c0-1.6-0.8-3.7-2.8-3.7
		S191.4,607.4,191.4,609.3z"/>
	<path fill="#FFFFFF" d="M201.1,607.4c0-1.1,0-2.1-0.1-3h1.5l0.1,1.9h0.1c0.4-1.3,1.5-2.1,2.6-2.1c0.2,0,0.3,0,0.5,0.1v1.6
		c-0.2,0-0.4-0.1-0.6-0.1c-1.2,0-2.1,0.9-2.3,2.2c0,0.2-0.1,0.5-0.1,0.8v5.1h-1.7V607.4z"/>
	<path fill="#FFFFFF" d="M208.3,609.5c0,2.4,1.5,3.3,3.3,3.3c1.2,0,2-0.2,2.6-0.5l0.3,1.2c-0.6,0.3-1.6,0.6-3.2,0.6
		c-2.9,0-4.7-1.9-4.7-4.8c0-2.9,1.7-5.2,4.5-5.2c3.1,0,3.9,2.8,3.9,4.5c0,0.4,0,0.6-0.1,0.8H208.3z M213.3,608.3
		c0-1.1-0.5-2.8-2.4-2.8c-1.7,0-2.5,1.6-2.6,2.8H213.3z"/>
</g>
</svg>
