<?xml version="1.0" encoding="utf-8"?>
<!-- Generator: Adobe Illustrator 18.1.1, SVG Export Plug-In . SVG Version: 6.00 Build 0)  -->
<svg version="1.1" id="Layer_1" xmlns="http://www.w3.org/2000/svg" xmlns:xlink="http://www.w3.org/1999/xlink" x="0px" y="0px"
	 viewBox="83.8 576 150 50" enable-background="new 83.8 576 150 50" xml:space="preserve">
<g>
	<path stroke="#939393" stroke-width="0.5" stroke-miterlimit="10" d="M230.8,623H88.3c-1.7,0-3-1.3-3-3v-36.4c0-1.7,1.3-3,3-3
		h142.5c1.7,0,3,1.3,3,3V620C233.8,621.7,232.4,623,230.8,623z"/>
	<linearGradient id="SVGID_1_" gradientUnits="userSpaceOnUse" x1="196.2686" y1="557.7543" x2="197.0409" y2="607.2742">
		<stop  offset="0" style="stop-color:#FFFFFF"/>
		<stop  offset="1" style="stop-color:#000000;stop-opacity:0.2"/>
	</linearGradient>
	<path fill="url(#SVGID_1_)" d="M230,623h-43.6l-26.9-42.4H230c2.1,0,3.7,1.7,3.7,3.7v34.9C233.8,621.3,232.1,623,230,623z"/>
</g>
<g>
	<path fill="#FFFFFF" stroke="#FFFFFF" stroke-width="0.5" stroke-miterlimit="10" d="M138.7,592.9c-0.4,0.1-1.1,0.3-1.9,0.3
		c-0.9,0-1.7-0.2-2.3-0.8c-0.5-0.5-0.9-1.3-0.9-2.3c0-1.8,1.3-3.2,3.3-3.2c0.7,0,1.3,0.2,1.5,0.3l-0.2,0.7c-0.3-0.1-0.7-0.3-1.4-0.3
		c-1.5,0-2.5,0.9-2.5,2.5c0,1.6,0.9,2.5,2.4,2.5c0.5,0,0.9-0.1,1.1-0.2v-1.8h-1.3v-0.6h2V592.9z"/>
	<path fill="#FFFFFF" stroke="#FFFFFF" stroke-width="0.5" stroke-miterlimit="10" d="M140.4,591.1c0,1.1,0.7,1.5,1.5,1.5
		c0.6,0,0.9-0.1,1.2-0.2l0.1,0.6c-0.3,0.1-0.8,0.3-1.5,0.3c-1.4,0-2.2-0.9-2.2-2.2s0.8-2.4,2.1-2.4c1.4,0,1.8,1.3,1.8,2.1
		c0,0.2,0,0.3,0,0.4H140.4z M142.8,590.5c0-0.5-0.2-1.3-1.1-1.3c-0.8,0-1.2,0.8-1.2,1.3H142.8z"/>
	<path fill="#FFFFFF" stroke="#FFFFFF" stroke-width="0.5" stroke-miterlimit="10" d="M145.5,587.4v1.3h1.2v0.6h-1.2v2.4
		c0,0.5,0.2,0.9,0.6,0.9c0.2,0,0.4,0,0.5-0.1l0,0.6c-0.2,0.1-0.4,0.1-0.7,0.1c-0.4,0-0.7-0.1-0.9-0.3c-0.2-0.2-0.3-0.6-0.3-1.2v-2.4
		H144v-0.6h0.7v-1.1L145.5,587.4z"/>
	<path fill="#FFFFFF" stroke="#FFFFFF" stroke-width="0.5" stroke-miterlimit="10" d="M150.4,587.5c0,0.3-0.2,0.5-0.5,0.5
		c-0.3,0-0.5-0.2-0.5-0.5c0-0.3,0.2-0.5,0.5-0.5C150.2,587,150.4,587.2,150.4,587.5z M149.5,593.1v-4.4h0.8v4.4H149.5z"/>
	<path fill="#FFFFFF" stroke="#FFFFFF" stroke-width="0.5" stroke-miterlimit="10" d="M152.6,587.4v1.3h1.2v0.6h-1.2v2.4
		c0,0.5,0.2,0.9,0.6,0.9c0.2,0,0.4,0,0.5-0.1l0,0.6c-0.2,0.1-0.4,0.1-0.7,0.1c-0.4,0-0.7-0.1-0.9-0.3c-0.2-0.2-0.3-0.6-0.3-1.2v-2.4
		h-0.7v-0.6h0.7v-1.1L152.6,587.4z"/>
	<path fill="#FFFFFF" stroke="#FFFFFF" stroke-width="0.5" stroke-miterlimit="10" d="M160.6,590.9c0,1.6-1.1,2.4-2.2,2.4
		c-1.2,0-2.1-0.9-2.1-2.3c0-1.5,1-2.4,2.2-2.4C159.8,588.6,160.6,589.5,160.6,590.9z M157.1,590.9c0,1,0.6,1.7,1.3,1.7
		c0.8,0,1.3-0.7,1.3-1.7c0-0.8-0.4-1.7-1.3-1.7S157.1,590.1,157.1,590.9z"/>
	<path fill="#FFFFFF" stroke="#FFFFFF" stroke-width="0.5" stroke-miterlimit="10" d="M161.6,589.9c0-0.5,0-0.8,0-1.2h0.7l0,0.7h0
		c0.2-0.4,0.7-0.8,1.5-0.8c0.6,0,1.6,0.4,1.6,1.9v2.6h-0.8v-2.6c0-0.7-0.3-1.3-1-1.3c-0.5,0-0.9,0.4-1.1,0.8c0,0.1-0.1,0.2-0.1,0.4
		v2.7h-0.8V589.9z"/>
</g>
<g>
	<path fill="#FFFFFF" d="M184.4,604.2H184v-0.1h0.9v0.1h-0.4v1.1h-0.2V604.2z"/>
	<path fill="#FFFFFF" d="M186.1,604.8c0-0.2,0-0.4,0-0.5h0c0,0.1-0.1,0.3-0.2,0.5l-0.2,0.6h-0.1l-0.2-0.6c-0.1-0.2-0.1-0.3-0.1-0.5
		h0c0,0.2,0,0.4,0,0.6l0,0.5H185l0.1-1.3h0.2l0.2,0.6c0.1,0.2,0.1,0.3,0.1,0.4h0c0-0.1,0.1-0.3,0.1-0.4l0.2-0.6h0.2l0.1,1.3h-0.2
		L186.1,604.8z"/>
</g>
<g>
	<path fill="#FFFFFF" d="M189.9,607.2c0-1.2,0-2.2-0.1-3.1h1.5l0.1,1.6h0c0.7-1.1,1.8-1.8,3.3-1.8c2.2,0,3.9,1.9,3.9,4.8
		c0,3.4-2,5-4.2,5c-1.2,0-2.3-0.5-2.8-1.5h0v5.1h-1.7V607.2z M191.6,609.7c0,0.3,0,0.5,0.1,0.7c0.3,1.2,1.3,2,2.5,2
		c1.8,0,2.8-1.5,2.8-3.6c0-1.9-1-3.5-2.8-3.5c-1.1,0-2.2,0.8-2.5,2.1c-0.1,0.2-0.1,0.5-0.1,0.7V609.7z"/>
	<path fill="#FFFFFF" d="M200.8,599.8h1.7v13.7h-1.7V599.8z"/>
	<path fill="#FFFFFF" d="M210.4,613.5l-0.1-1.2h-0.1c-0.5,0.7-1.5,1.4-2.8,1.4c-1.9,0-2.8-1.3-2.8-2.7c0-2.3,2-3.5,5.6-3.5v-0.2
		c0-0.8-0.2-2.2-2.1-2.2c-0.9,0-1.8,0.3-2.4,0.7l-0.4-1.1c0.8-0.5,1.9-0.8,3-0.8c2.8,0,3.5,2,3.5,3.8v3.5c0,0.8,0,1.6,0.2,2.2H210.4
		z M210.2,608.7c-1.8,0-3.9,0.3-3.9,2.1c0,1.1,0.7,1.6,1.6,1.6c1.2,0,2-0.8,2.2-1.6c0.1-0.2,0.1-0.4,0.1-0.5V608.7z"/>
	<path fill="#FFFFFF" d="M215,604.1l2,5.5c0.2,0.6,0.4,1.4,0.6,1.9h0c0.2-0.6,0.4-1.3,0.6-2l1.8-5.5h1.8l-2.5,6.7
		c-1.2,3.2-2,4.9-3.2,5.9c-0.8,0.7-1.6,1-2.1,1.1l-0.4-1.4c0.4-0.1,1-0.4,1.5-0.8c0.5-0.4,1-1,1.4-1.9c0.1-0.2,0.1-0.3,0.1-0.4
		s0-0.2-0.1-0.4l-3.4-8.6H215z"/>
</g>
<g>
	<path fill="#FFFFFF" d="M140.5,609.4c0,0.1,0,0.1-0.1,0.1h-1.5c-0.1,0-0.1,0-0.1,0.1c0-0.1,0,0.2,0,0.6s0,1,0,1.4
		c0,0.8,0,1.6,0.1,2.3c0,0.1,0,0.1-0.1,0.2c-0.2,0-0.7,0.2-1.5,0.5c-1.2,0.5-2.4,0.8-3.7,0.8c-1.5,0-2.5-0.1-3.1-0.3
		c-1.1-0.4-2-1.1-2.6-2c-0.7-1-1.1-2.4-1.1-4.2c0-1.8,0.6-3.3,1.7-4.7c0.8-1,2.1-1.7,3.7-2.3c0.9-0.3,2.1-0.4,3.5-0.4
		c1.5,0,2.6,0.1,3.3,0.4c0.1,0,0.1,0.1,0.1,0.1c0,0,0,0.2-0.1,0.5c0,0.3-0.1,0.5-0.1,0.5c-0.1,0.7-0.1,1.1-0.1,1.2
		c0,0.1-0.1,0.1-0.1,0.1c-0.1,0-0.1,0-0.1-0.1c0-0.2,0-0.3-0.1-0.5c-0.1-0.3-0.3-0.5-0.5-0.7c-0.8-0.5-2-0.8-3.6-0.8
		c-0.9,0-1.6,0.1-2.2,0.3c-0.8,0.3-1.5,0.8-2.2,1.5c-1.1,1.2-1.6,2.6-1.6,4.4c0,2,0.6,3.5,1.7,4.7c0.7,0.7,1.4,1.1,2.3,1.3
		c0.6,0.1,1.3,0.2,2.3,0.2c0.8,0,1.7-0.3,2.4-0.8c0.1-0.1,0.1-0.1,0.1-0.2v-1.8c0-0.6,0-1.1,0-1.3c0-0.8-0.1-1.2-0.2-1.2h-2.2
		c-0.1,0-0.1-0.1-0.1-0.2v-0.2c0-0.1,0-0.2,0.1-0.2h5.7c0.1,0,0.1,0,0.1,0.1V609.4z"/>
	<path fill="#FFFFFF" d="M150.8,610.6c0,0.9-0.1,1.7-0.4,2.3c-0.3,0.8-1,1.4-1.9,1.9c-0.6,0.3-1.3,0.5-2.2,0.5c-0.9,0-1.6-0.1-2-0.2
		c-0.8-0.4-1.5-1-1.9-1.8c-0.4-0.8-0.6-1.7-0.6-2.7c0-1,0.2-2,0.7-2.7c0.4-0.7,1-1.3,1.8-1.6c0.6-0.3,1.4-0.4,2.5-0.4
		c0.9,0,1.6,0.2,2.1,0.5c0.7,0.4,1.2,1,1.5,1.8C150.6,608.9,150.8,609.7,150.8,610.6z M149.3,611.1c0-1.4-0.3-2.5-1-3.3
		c-0.7-0.8-1.6-1.2-2.7-1.2c-0.6,0-1,0-1.2,0.1c-0.1,0.1-0.3,0.2-0.5,0.5c-0.4,0.6-0.6,1.4-0.6,2.6c0,1.2,0.2,2.3,0.6,3.3
		c0.3,0.7,0.7,1.2,1.2,1.5c0.4,0.3,0.9,0.4,1.5,0.4c0.6,0,1.1-0.1,1.4-0.3c0.4-0.2,0.7-0.7,1-1.4
		C149.2,612.8,149.3,612.1,149.3,611.1z"/>
	<path fill="#FFFFFF" d="M161.1,610.6c0,0.9-0.1,1.7-0.4,2.3c-0.3,0.8-1,1.4-1.9,1.9c-0.6,0.3-1.3,0.5-2.2,0.5c-0.9,0-1.6-0.1-2-0.2
		c-0.8-0.4-1.5-1-1.9-1.8c-0.4-0.8-0.6-1.7-0.6-2.7c0-1,0.2-2,0.7-2.7c0.4-0.7,1-1.3,1.8-1.6c0.6-0.3,1.4-0.4,2.5-0.4
		c0.9,0,1.6,0.2,2.1,0.5c0.7,0.4,1.2,1,1.5,1.8C160.9,608.9,161.1,609.7,161.1,610.6z M159.6,611.1c0-1.4-0.3-2.5-1-3.3
		c-0.7-0.8-1.6-1.2-2.7-1.2c-0.6,0-1,0-1.2,0.1c-0.1,0.1-0.3,0.2-0.5,0.5c-0.4,0.6-0.6,1.4-0.6,2.6c0,1.2,0.2,2.3,0.6,3.3
		c0.3,0.7,0.7,1.2,1.2,1.5c0.4,0.3,0.9,0.4,1.5,0.4c0.6,0,1.1-0.1,1.4-0.3c0.4-0.2,0.7-0.7,1-1.4
		C159.5,612.8,159.6,612.1,159.6,611.1z"/>
	<path fill="#FFFFFF" d="M171.5,617.1c0,0.8-0.4,1.5-1.2,2.2c-1,0.9-2.4,1.3-4.4,1.3c-1.4,0-2.4-0.3-3.1-0.8c-0.6-0.5-0.9-1-0.9-1.6
		c0-0.7,0.3-1.3,0.9-1.9c0.2-0.2,0.7-0.5,1.5-0.8c0.2-0.1,0.2-0.2,0-0.2c-0.4-0.1-0.7-0.2-0.9-0.3c-0.3-0.2-0.5-0.5-0.5-0.8
		c0-0.4,0.2-0.7,0.5-0.9c0.3-0.2,0.6-0.4,0.9-0.6c0.1-0.1,0-0.2-0.1-0.3c-0.3-0.1-0.6-0.4-0.9-0.7c-0.5-0.5-0.8-1.2-0.8-2.2
		c0-1,0.3-1.8,1-2.5c0.6-0.7,1.6-1,2.7-1c0.7,0,1.3,0.1,1.8,0.2c0.4,0.1,1,0.1,1.8,0.1c0.5,0,0.9-0.1,1.1-0.2c0.1,0,0.1,0,0.2-0.1
		c0.1,0,0.1-0.1,0.1-0.1c0.1,0,0.1,0.1,0.1,0.2c0,0.3-0.1,0.6-0.4,0.9c-0.1,0.1-0.3,0.1-0.5,0.1c-0.3,0-0.7,0-1.2-0.1
		c-0.2,0-0.3,0-0.3,0.1c0,0,0,0.1,0.1,0.2c0.5,0.6,0.7,1.3,0.7,2c0,1-0.4,1.8-1.1,2.5c-0.7,0.7-1.6,1-2.7,1c-0.4,0-0.7,0-1-0.1
		c-0.1,0-0.2,0-0.2,0c-0.2,0.1-0.3,0.2-0.5,0.3c-0.2,0.1-0.3,0.3-0.3,0.5c0,0.2,0.1,0.4,0.2,0.5c0.1,0.1,0.3,0.1,0.6,0.1
		c0.5,0.1,0.9,0.1,1.3,0.1c2.2,0,3.7,0.4,4.5,1.1C171.2,615.7,171.5,616.3,171.5,617.1z M170.4,617.7c0-0.2-0.1-0.5-0.2-0.7
		c-0.2-0.3-0.5-0.6-0.9-0.7c-0.9-0.4-1.9-0.5-3.1-0.5c-1.1,0-1.8,0.2-2.3,0.7c-0.5,0.5-0.8,1.1-0.8,1.7c0,0.6,0.3,1,0.8,1.3
		c0.6,0.4,1.5,0.6,2.7,0.6c1.2,0,2.2-0.3,2.8-0.8c0.4-0.3,0.7-0.5,0.8-0.7C170.3,618.3,170.4,618,170.4,617.7z M168.3,609.8
		c0-1-0.2-1.8-0.7-2.3c-0.6-0.6-1.2-0.9-1.9-0.9c-0.7,0-1.1,0.2-1.4,0.5c-0.3,0.4-0.4,1-0.4,1.7c0,0.9,0.1,1.6,0.4,2.1
		c0.5,0.9,1.2,1.3,2.1,1.3c0.6,0,1.1-0.2,1.4-0.6C168.2,611.2,168.3,610.6,168.3,609.8z"/>
	<path fill="#FFFFFF" d="M177.2,615.2c0,0.1,0,0.1-0.1,0.1H172c-0.1,0-0.1,0-0.1-0.1v-0.4c0-0.1,0-0.1,0.1-0.1h1.7
		c0.1,0,0.2-0.1,0.2-0.2v-11.2c0-1.5-0.1-2.2-0.4-2.2h-1.3c-0.1,0-0.1,0-0.1-0.1v-0.3c0-0.1,0-0.1,0.1-0.1h0.8c0.5,0,1-0.1,1.5-0.2
		c0.5-0.1,0.8-0.2,0.7-0.2c0.1,0,0.2,0.1,0.2,0.3c0,0,0,2-0.1,6s-0.1,6-0.1,6.2c0,1.5,0.1,2.2,0.4,2.2h1.5c0.1,0,0.1,0,0.1,0.1
		V615.2z"/>
	<path fill="#FFFFFF" d="M186,613.9C186,614,186,614,186,613.9c-0.2,0.3-0.4,0.4-0.6,0.5c-0.3,0.2-0.6,0.4-1,0.5
		c-0.7,0.3-1.4,0.5-2.2,0.5c-1.2,0-2.2-0.4-2.9-1.1c-0.9-0.9-1.3-1.9-1.3-3.1c0-0.9,0-1.5,0.1-1.9c0.2-1,0.7-1.8,1.3-2.4
		c0.7-0.7,1.6-1,2.6-1c0.5,0,0.9,0.1,1.2,0.2c0.2,0.1,0.6,0.4,1.2,0.7c0.6,0.5,1.1,0.9,1.3,1.4c0.1,0.1,0.1,0.2,0.1,0.3
		c0,0.1-0.1,0.1-0.2,0.2c-0.3,0.1-1,0.3-2.3,0.5c-1.4,0.3-2.4,0.4-2.9,0.4c0,0-0.2,0-0.5,0c-0.3,0-0.4,0-0.5,0
		c-0.1,0-0.1,0.2-0.1,0.5c0,1.4,0.5,2.5,1.5,3.4c0.6,0.5,1.5,0.7,2.7,0.7c0.6,0,1.2-0.1,1.6-0.2c0.3-0.1,0.5-0.2,0.6-0.3
		c0,0,0.1,0,0.1-0.1C185.9,613.8,185.9,613.8,186,613.9C186,613.9,186,613.9,186,613.9z M184.1,608.5c0-0.1,0-0.1-0.1-0.3
		c-0.3-0.5-0.7-0.9-1.1-1.3s-1-0.5-1.5-0.5c-0.4,0-0.8,0.3-1.2,0.8c-0.1,0.2-0.3,0.5-0.5,0.9c-0.2,0.4-0.3,0.8-0.3,1
		c0,0.1,0,0.2,0.1,0.2c-0.1,0,0.5,0,1.8-0.1c1.2-0.1,2.1-0.3,2.7-0.5C184,608.7,184.1,608.6,184.1,608.5z"/>
</g>
<g>
	<defs>
		<path id="SVGID_3_" d="M121.6,599.2c0.7,0.4,0.7,1.3,0,1.7l-5.6,3.1l-17.1,9.3c-0.6,0.3-1.4-0.1-1.4-0.8v-24.8
			c0-0.7,0.8-1.2,1.4-0.8l17.4,9.5L121.6,599.2z"/>
	</defs>
	<clipPath id="SVGID_2_">
		<use xlink:href="#SVGID_3_"  overflow="visible"/>
	</clipPath>
	<g clip-path="url(#SVGID_2_)">
		<polygon fill="#248EB6" points="112,600.1 97.4,614 97.4,586 		"/>
		<polygon fill="#76C8A0" points="116.2,596.2 112,600.1 97.4,586 		"/>
		<polygon fill="#F89777" points="123.1,600 115.9,603.9 112,600.1 116.2,596.2 		"/>
		<polygon fill="#D64353" points="115.9,603.9 97.4,614 112,600.1 		"/>
	</g>
</g>
</svg>
