<?xml version="1.0" encoding="utf-8"?>
<!-- Generator: Adobe Illustrator 23.0.1, SVG Export Plug-In . SVG Version: 6.00 Build 0)  -->
<svg version="1.1" id="Ñëîé_1" xmlns="http://www.w3.org/2000/svg" xmlns:xlink="http://www.w3.org/1999/xlink" x="0px" y="0px"
	 viewBox="0 0 12.1 9.9" style="enable-background:new 0 0 12.1 9.9;" xml:space="preserve">
<style type="text/css">
	.st0{fill:#822972;}
	.st1{fill:#D4ECFF;}
	.st2{fill:#2A417C;}
	.st3{fill:#396CAA;}
	.st4{fill:#8ACFDE;}
	.st5{fill:#FFFFFF;}
	.st6{fill:#D33E8C;}
	.st7{fill:#F440C1;}
	.st8{fill:#D3008D;}
	.st9{fill:#4683A5;}
	.st10{fill:#95D359;}
	.st11{fill:#C13D1A;}
	.st12{fill:#DB5126;}
	.st13{fill:#EF602E;}
	.st14{fill:#5793CE;}
	.st15{fill:#375089;}
	.st16{fill:#B70083;}
	.st17{fill:#FF2C9C;}
	.st18{fill:#173D7A;}
	.st19{fill:#087670;}
	.st20{fill:#38A74D;}
</style>
<title>insights</title>
<rect x="8.8" y="0.8" transform="matrix(0.9687 -0.2482 0.2482 0.9687 6.314026e-02 2.2737)" class="st0" width="0.5" height="0.2"/>
<rect x="8.5" y="1" transform="matrix(0.9687 -0.2484 0.2484 0.9687 -4.212339e-03 2.22)" class="st0" width="0.5" height="0.2"/>
<rect x="8.3" y="1.3" transform="matrix(0.9687 -0.2484 0.2484 0.9687 -7.396052e-02 2.1643)" class="st0" width="0.5" height="0.2"/>
<path class="st1" d="M6.9,9.5L0.4,5.8C0.3,5.7,0.3,5.5,0.5,5.4l4.4-2.5c0.2-0.1,0.5-0.1,0.7,0l6.5,3.7c0.2,0.1,0.2,0.3,0,0.4
	L7.6,9.5C7.4,9.6,7.1,9.6,6.9,9.5z"/>
<path class="st2" d="M12.2,5.8l-0.9-0.1L5.6,2.4c-0.2-0.1-0.5-0.1-0.7,0l-4,2.3L0.3,4.7V5l0,0c0,0.1,0,0.2,0.1,0.2l6.5,3.7
	C7.1,9,7.4,9,7.6,8.9L12,6.3c0.1,0,0.2-0.1,0.2-0.2l0,0L12.2,5.8z"/>
<path class="st3" d="M7.9,3.7L7.5,3.5H3.1L0.9,4.8L0.3,4.7V5l0,0c0,0.1,0,0.2,0.1,0.2l6.5,3.7C7,9,7.1,9,7.3,9L7.9,3.7z"/>
<path class="st4" d="M6.9,8.6L0.4,4.9C0.3,4.8,0.3,4.6,0.5,4.5l4.4-2.5c0.2-0.1,0.5-0.1,0.7,0l6.5,3.7c0.2,0.1,0.2,0.3,0,0.4
	L7.6,8.6C7.4,8.7,7.1,8.7,6.9,8.6z"/>
<path class="st5" d="M12,5.9L7.6,8.5c-0.2,0.1-0.5,0.1-0.7,0L0.4,4.8c-0.1,0-0.1-0.1-0.1-0.1c0,0.1,0,0.2,0.1,0.2l6.5,3.7
	c0.2,0.1,0.5,0.1,0.7,0L12,6c0.1-0.1,0.2-0.2,0.2-0.3C12.2,5.8,12.1,5.9,12,5.9z"/>
<path class="st1" d="M10.6,2.8l-0.2-0.1c0,0,0-0.1,0-0.1l0,0c0,0,0,0,0,0l0.2,0.1C10.6,2.7,10.7,2.7,10.6,2.8L10.6,2.8
	C10.7,2.8,10.6,2.8,10.6,2.8z"/>
<polygon class="st1" points="7,6.8 7.7,6.4 8.4,6.8 7.7,7.2 "/>
<polygon class="st1" points="8.5,6 9.2,5.6 9.8,6 9.2,6.4 "/>
<polygon class="st1" points="9.9,5.2 10.6,4.8 11.2,5.2 10.6,5.5 "/>
<polygon class="st6" points="9.2,6 9.2,3.9 8.5,3.5 8.5,5.6 "/>
<polygon class="st6" points="9.2,3.9 9.8,3.5 9.8,5.6 9.2,6 "/>
<polygon class="st6" points="9.2,6 9.2,3.9 8.5,3.5 8.5,5.6 "/>
<polygon class="st6" points="7.7,6.8 7.7,5.6 7,5.3 7,6.4 "/>
<polygon class="st6" points="7.7,5.6 8.4,5.3 8.4,6.4 7.7,6.8 "/>
<polygon class="st7" points="7,5.3 7.7,4.9 8.4,5.3 7.7,5.6 "/>
<polygon class="st8" points="10.6,5.2 10.6,2.3 9.9,1.9 9.9,4.8 "/>
<polygon class="st8" points="10.6,2.3 11.2,1.9 11.2,4.8 10.6,5.2 "/>
<polygon class="st7" points="9.9,1.9 10.6,1.5 11.2,1.9 10.6,2.3 "/>
<polygon class="st7" points="8.5,3.5 9.2,3.1 9.8,3.5 9.2,3.9 "/>
<path class="st1" d="M1.9,2c0,0.3-0.3,0.6-0.6,0.6S0.8,2.4,0.8,2S1,1.5,1.4,1.5l0,0C1.7,1.5,1.9,1.7,1.9,2z"/>
<polygon class="st1" points="4.6,5.9 5.4,5.4 4.6,4.9 3.7,5.4 3.7,5.4 2.9,5.9 3.7,6.4 3.7,6.4 4.6,6.9 5.4,6.4 4.6,5.9 "/>
<polygon class="st2" points="4.6,4.7 4.6,1.1 5.4,0.6 5.4,4.2 "/>
<polygon class="st9" points="4.6,1.1 3.7,0.6 3.7,4.2 4.6,4.7 "/>
<polygon class="st1" points="5.4,0.6 4.6,0.1 3.7,0.6 4.6,1.1 "/>
<polygon class="st10" points="5.4,4.8 4.6,4.3 4.6,4.7 5.4,5.2 "/>
<polygon class="st11" points="3.7,5.2 3.7,2.5 4.6,2 4.6,4.7 "/>
<polygon class="st12" points="3.7,2.5 2.9,2 2.9,4.7 3.7,5.2 "/>
<polygon class="st13" points="4.6,2 3.7,1.5 2.9,2 3.7,2.5 "/>
<polygon class="st9" points="3.7,5.2 3.7,2.5 4.6,2 4.6,4.7 "/>
<polygon class="st14" points="3.7,2.5 2.9,2 2.9,4.7 3.7,5.2 "/>
<polygon class="st1" points="4.6,2 3.7,1.5 2.9,2 3.7,2.5 "/>
<polygon class="st2" points="4.6,5.7 4.6,4.2 5.4,3.7 5.4,5.2 "/>
<polygon class="st15" points="4.6,4.2 3.7,3.7 3.7,5.2 4.6,5.7 "/>
<polygon class="st1" points="5.4,3.7 4.6,3.2 3.7,3.7 4.6,4.2 "/>
<path class="st1" d="M5.6,8C4.8,7.6,3.8,7.6,2.9,8c-0.7,0.4-0.7,1.1,0,1.6c0.8,0.4,1.8,0.4,2.7,0C6.4,9.2,6.4,8.5,5.6,8z M4.9,9.2
	C4.5,9.4,4,9.4,3.6,9.2C3.3,9,3.3,8.7,3.7,8.5c0.4-0.2,0.8-0.2,1.2,0C5.2,8.7,5.2,9,4.9,9.2L4.9,9.2z"/>
<path class="st6" d="M2.6,7.8h0.7c0.1-0.1,0.1-0.1,0.2-0.2C4,7.4,4.5,7.4,4.9,7.6l0.4-0.4h0.6L5.8,7.1c-1-0.5-2.1-0.5-3.1,0
	C2.6,7.2,2.4,7.3,2.3,7.4L2.6,7.8z"/>
<polygon class="st8" points="5.9,6.2 5.9,7.2 5.3,7.2 5.3,6.2 "/>
<polygon class="st16" points="4.9,6.6 4.9,7.6 5.3,7.2 5.3,6.2 "/>
<path class="st6" d="M3.3,6.8v1l0.9-0.7l0.7,0.5v-1L4.2,6.3L3.3,6.6C3.3,6.6,3.3,6.8,3.3,6.8z"/>
<polygon class="st16" points="2.6,6.8 2.6,7.8 3.3,7.8 3.3,6.8 "/>
<polygon class="st8" points="2.3,6.4 2.3,7.4 2.6,7.8 2.6,6.8 "/>
<path class="st17" d="M2.6,6.8l0.7,0c0.1-0.1,0.1-0.1,0.2-0.2c0.4-0.2,0.9-0.2,1.4,0l0.4-0.4h0.6L5.8,6.1c-1-0.5-2.1-0.5-3.1,0
	C2.5,6.2,2.4,6.3,2.3,6.4L2.6,6.8z"/>
<path class="st14" d="M5.1,6.7v0.9l0.6-0.1c0,0,0-0.5-0.1-0.6C5.6,6.8,5.1,6.7,5.1,6.7z"/>
<path class="st18" d="M4.7,7.6v1l0.1,0.1l0.4-0.2c0,0-0.1-0.8-0.1-0.8S4.7,7.6,4.7,7.6z"/>
<path class="st19" d="M5.5,7.3L5.1,7.7C5.4,7.9,5.4,8.3,5,8.5C4.9,8.5,4.8,8.6,4.7,8.6L5,9L4.7,9.3c0.4,0,0.8-0.2,1.1-0.4
	c0.7-0.4,0.8-1.1,0.3-1.6L5.5,7.3z"/>
<polygon class="st19" points="4.7,8.3 4.7,9.3 5.5,9 6.5,8 6.5,7 5.4,7.8 "/>
<path class="st4" d="M5.5,6.4L5.1,6.7C5.4,6.9,5.4,7.3,5,7.5C4.9,7.5,4.8,7.6,4.7,7.6L5,8L4.7,8.3c0.4,0,0.8-0.2,1.1-0.3
	c0.7-0.4,0.8-1.1,0.3-1.6L5.5,6.4z"/>
<path class="st19" d="M4.7,9L4.4,8.6c-0.3,0-0.6,0-0.8-0.2C3.3,8.4,3.2,8.2,3.2,8H2.5L2.2,7.7C1.9,8.1,2.1,8.6,2.7,9
	c0.5,0.3,1.1,0.4,1.6,0.4L4.7,9z"/>
<polygon class="st19" points="4.3,8.3 4.3,9.3 2.1,8 2.1,7.1 2.4,7.2 "/>
<polygon class="st18" points="4.7,8 4.7,9 4.3,9.3 4.3,8.3 "/>
<path class="st20" d="M4.7,8L4.4,7.6c-0.3,0-0.6,0-0.8-0.2C3.3,7.4,3.2,7.2,3.2,7H2.5L2.2,6.7C1.9,7.1,2.1,7.6,2.7,8
	c0.5,0.3,1.1,0.4,1.6,0.4L4.7,8z"/>
</svg>
