<svg xmlns="http://www.w3.org/2000/svg" viewBox="0 0 77.8 60.47"><defs><style>.cls-1{isolation:isolate;}.cls-2{opacity:0.3;}.cls-3{fill:#d1f5ea;}.cls-4{fill:#0038d9;}.cls-13,.cls-5{fill:#2a417c;}.cls-6{fill:#80deea;}.cls-7{fill:#ff111a;}.cls-21,.cls-8{fill:#0a7670;}.cls-14,.cls-8{opacity:0.59;}.cls-9{fill:#ea1d25;}.cls-10{fill:#f1df0c;}.cls-11{fill:#20b04b;}.cls-12{fill:#0083ff;}.cls-12,.cls-13,.cls-16{mix-blend-mode:multiply;}.cls-14{fill:#3bfaff;}.cls-15{fill:#ed9d21;}.cls-16{fill:#017abf;opacity:0.09;}.cls-17{fill:#b0e6ff;}.cls-18{fill:#beefff;}.cls-19{fill:#d4faff;}.cls-20{fill:#a0d8ff;}.cls-22{fill:#181638;}.cls-23{fill:#007196;}.cls-24{fill:#00655d;}.cls-25{fill:#bfe7ff;}.cls-26{fill:#112d6b;}.cls-27{fill:#ffbe9e;}.cls-28{fill:#ab5891;}.cls-29{fill:#002140;}.cls-30{fill:#00afac;}.cls-31{fill:#f0c2a0;}.cls-32{fill:#25d8e5;}</style></defs><title>reach_audience</title><g class="cls-1"><g id="OBJECTS"><g class="cls-2"><path class="cls-3" d="M76.1,51.34H17.79c-1.69,0-3.06.83-3.06,1.85h0c0,.71.66,1.33,1.62,1.64H11.66c-1.69,0-3.07.84-3.07,1.86h0c0,1,1.38,1.86,3.07,1.86H13.3a1.51,1.51,0,0,0-.74,1.2v.74c0,1,1.38,1.86,3.07,1.86H73.14c1.69,0,3.07-.83,3.07-1.86v-.74c0-1-1.38-1.86-3.07-1.86l-3.57,0a1.72,1.72,0,0,0,1-.39,1.46,1.46,0,0,0,.29-1.73A1.28,1.28,0,0,0,69.79,55l6.31,0c1.68,0,3.06-.83,3.06-1.86h0C79.16,52.17,77.78,51.34,76.1,51.34Z" transform="translate(-1.37 -1.88)"/></g><polygon class="cls-4" points="26.19 49.4 19.53 47.19 22.38 43.38 26.19 49.4"/><polyline class="cls-5" points="52.25 4.63 53.12 7.51 53.72 7.63 55.87 5.22 55.38 4.01 53.98 3.73"/><path class="cls-5" d="M68.48,11.53,67.42,7.07a3.41,3.41,0,0,0-.33-.86h0l-1.4-2.72V4.83a3.4,3.4,0,0,0-3-.1L57.44,7.07a29.12,29.12,0,0,1,6.82,7l1.18-1.44,1.68.33A1.16,1.16,0,0,0,68.48,11.53Z" transform="translate(-1.37 -1.88)"/><path class="cls-6" d="M37.2,30.16,55.43,7.42l-1.07-.21a1,1,0,0,1-.2-1.81L61.4,2.18a3.42,3.42,0,0,1,4.72,2.34L67.18,9a1.16,1.16,0,0,1-1.36,1.41l-1.69-.33L43.2,35.79Z" transform="translate(-1.37 -1.88)"/><polyline class="cls-6" points="38.43 28.21 29.78 25.77 21.77 35.88 25.81 41.57 27.78 43.79 31.69 39.98"/><polyline class="cls-4" points="40.8 40.66 33.3 39.18 37.12 33.55 39.9 36.28 40.36 37.35"/><polygon class="cls-5" points="14.33 54.13 8.29 55.9 23.36 36.33 27.12 42.63 38.43 28.21 41.84 33.91 62.77 8.18 64.08 10.72 40.8 40.66 37.17 34.58 26.19 49.4 22.38 43.38 14.33 54.13"/><path class="cls-5" d="M23.75,45.26l-3.33,4.45c-1.14-.39-2.39-.76-3.7-1.1l8-10.4,3.75,6.3L39.8,30.09l3.4,5.7L64.13,10.06l1.31,2.54L42.17,42.54l-3.63-6.08-11,14.82Z" transform="translate(-1.37 -1.88)"/><polygon class="cls-6" points="23.36 36.33 14.22 33.77 0 52.56 8.29 55.9 23.36 36.33"/><path class="cls-7" d="M43.88,35.58" transform="translate(-1.37 -1.88)"/><rect class="cls-8" x="8.31" width="22.44" height="23.33" rx="4.8"/><circle class="cls-9" cx="10.84" cy="2.77" r="0.65"/><circle class="cls-10" cx="12.85" cy="2.77" r="0.65"/><path class="cls-11" d="M16.87,4.65A.66.66,0,1,1,16.22,4,.66.66,0,0,1,16.87,4.65Z" transform="translate(-1.37 -1.88)"/><circle class="cls-12" cx="13.48" cy="11.22" r="2.93" transform="translate(-0.19 21.85) rotate(-85.27)"/><circle class="cls-13" cx="12.11" cy="9.34" r="2.39"/><rect class="cls-14" x="17.21" y="6.42" width="12.67" height="5.91" rx="2.25"/><path class="cls-15" d="M30.28,9.23H19.55a.14.14,0,0,1-.14-.14h0A.14.14,0,0,1,19.55,9H30.28a.13.13,0,0,1,.14.13h0A.14.14,0,0,1,30.28,9.23Z" transform="translate(-1.37 -1.88)"/><circle class="cls-12" cx="12.11" cy="15.82" r="2.93"/><path class="cls-13" d="M15.87,17.7a2.39,2.39,0,1,1-2.39-2.39A2.39,2.39,0,0,1,15.87,17.7Z" transform="translate(-1.37 -1.88)"/><rect class="cls-14" x="17.21" y="12.89" width="12.67" height="5.91" rx="2.25"/><path class="cls-15" d="M30.28,15.71H19.55a.14.14,0,0,1-.14-.14h0a.15.15,0,0,1,.14-.14H30.28a.14.14,0,0,1,.14.14h0A.14.14,0,0,1,30.28,15.71Z" transform="translate(-1.37 -1.88)"/><path class="cls-16" d="M9.69,52.58c0,.72-1.31,1.3-2.92,1.3s-2.92-.58-2.92-1.3,1.3-1.3,2.92-1.3S9.69,51.87,9.69,52.58Z" transform="translate(-1.37 -1.88)"/><path class="cls-17" d="M9.66,49l-.47.11a3.84,3.84,0,0,0-2.42-.67,3.8,3.8,0,0,0-2.42.67L3.88,49l.22,3.45h0c.16.6,1.29,1.06,2.67,1.06s2.5-.46,2.66-1.06h0Z" transform="translate(-1.37 -1.88)"/><path class="cls-18" d="M4.85,52v.57a2.83,2.83,0,0,0,1.31.25v-.57A2.89,2.89,0,0,1,4.85,52Z" transform="translate(-1.37 -1.88)"/><path class="cls-18" d="M9.05,51.28v.58a3.15,3.15,0,0,1-1.29.41V51.7A3.07,3.07,0,0,0,9.05,51.28Z" transform="translate(-1.37 -1.88)"/><path class="cls-18" d="M4.85,50.87v.58a2.92,2.92,0,0,0,1.31.24v-.57A2.89,2.89,0,0,1,4.85,50.87Z" transform="translate(-1.37 -1.88)"/><path class="cls-19" d="M9.69,48.84c0,.71-1.31,1.29-2.92,1.29s-2.92-.58-2.92-1.29,1.3-1.3,2.92-1.3S9.69,48.12,9.69,48.84Z" transform="translate(-1.37 -1.88)"/><path class="cls-20" d="M9.05,48.7c0,.56-1,1-2.28,1s-2.28-.46-2.28-1,1-1,2.28-1S9.05,48.14,9.05,48.7Z" transform="translate(-1.37 -1.88)"/><path class="cls-10" d="M6.66,49,1.37,44.12A2.19,2.19,0,0,0,2,45.78c.72.58,1.3.38,1.39,1.28a1.59,1.59,0,0,0,1.23,1.5C5.76,48.72,6,49.31,6.66,49Z" transform="translate(-1.37 -1.88)"/><path class="cls-15" d="M6.66,49,1.37,44.12a2.2,2.2,0,0,1,1.71.53c.64.66.49,1.26,1.4,1.27A1.6,1.6,0,0,1,6.08,47C6.33,48.1,6.93,48.3,6.66,49Z" transform="translate(-1.37 -1.88)"/><path class="cls-5" d="M6.77,49.05V30.81s-2.11,1.78-2,4.11,1.53,3.07,0,4.79a4,4,0,0,0-.69,4.88C5.69,46.91,5,48.39,6.77,49.05Z" transform="translate(-1.37 -1.88)"/><path class="cls-6" d="M6.77,49.05V30.81s2.11,1.78,2,4.11-1.53,3.07,0,4.79a4,4,0,0,1,.69,4.88C7.84,46.91,8.5,48.39,6.77,49.05Z" transform="translate(-1.37 -1.88)"/><path class="cls-11" d="M7.52,49.08,11.3,37.71a3.74,3.74,0,0,0-2.08,2.16c-.38,1.49.32,2.23-1,3a2.63,2.63,0,0,0-1.44,2.9C7.29,47.52,6.58,48.3,7.52,49.08Z" transform="translate(-1.37 -1.88)"/><path class="cls-21" d="M7.52,49.08,11.3,37.71a3.72,3.72,0,0,1,.36,3c-.58,1.42-1.59,1.6-1,3a2.64,2.64,0,0,1-.59,3.18C8.63,48,8.73,49,7.52,49.08Z" transform="translate(-1.37 -1.88)"/><polygon class="cls-22" points="70.7 54.73 70.72 55.54 69.11 56.4 68.27 55.61 69.06 54.77 70.67 53.91 70.7 54.73"/><polygon class="cls-23" points="68.31 34.64 71.4 35.2 69.56 43.41 70.77 54.46 69.16 54.83 64.92 41.49 64.91 37.51 65.22 35.15 68.31 34.64"/><polygon class="cls-23" points="60.56 30.76 60.45 41.1 62.45 54.43 63.96 54.43 64.9 42.12 66.96 29.81 60.56 30.76"/><polygon class="cls-22" points="63.95 54.25 63.96 55.06 62.32 55.88 61.49 55.07 62.31 54.26 63.95 54.25"/><path class="cls-24" d="M73.74,37.41c0,.46-.67,3.45-.53,3.53q-1-.36-2.1-.63a26.7,26.7,0,0,0-5.69-.85,12.26,12.26,0,0,0-2.64.07,12.65,12.65,0,0,0-1.25.3c-.11,0-1.21.22-1.21.24.2-1.32.14-2.65.23-4a36.65,36.65,0,0,1,.5-4,26.47,26.47,0,0,1,2.27-5.75,24.6,24.6,0,0,1,1.35-2.84,4.56,4.56,0,0,1,2-2,2.58,2.58,0,0,1,.88-.07l2.66.1a2.33,2.33,0,0,1,1,.18A2.16,2.16,0,0,1,72,22.83a21.43,21.43,0,0,1,1.54,6.32c.11,1.14.2,2.28.25,3.42s.08,2.56,0,3.83C73.77,36.54,73.76,36.94,73.74,37.41Z" transform="translate(-1.37 -1.88)"/><path class="cls-25" d="M68.42,26.89a9.88,9.88,0,0,0,0,1.72c.2,3.5,1.09,7.78,1.29,11.28a27.29,27.29,0,0,0-8-.1c.18-1.29.57-3.83.74-5.12a20.57,20.57,0,0,1,.43-2.47,20.2,20.2,0,0,1,1.5-3.7l3.2-6.63a1,1,0,0,1,.21-.32.78.78,0,0,1,.41-.14,6.15,6.15,0,0,1,2.14,0c.13.72-.59,1.91-.87,2.56A10.9,10.9,0,0,0,68.42,26.89Z" transform="translate(-1.37 -1.88)"/><path class="cls-26" d="M66,16.9A3.05,3.05,0,0,0,66,18.31a.44.44,0,0,1,0,.36c-.09.1,0,.25-.07.16a2.2,2.2,0,0,1-.49-.52,4.81,4.81,0,0,1-.2-.93,1.36,1.36,0,0,1,.1-.8,1.42,1.42,0,0,1,.32-.37,2.27,2.27,0,0,1,.57-.42c.38-.15.65-.06.36.29A2.47,2.47,0,0,0,66,16.9Z" transform="translate(-1.37 -1.88)"/><path class="cls-27" d="M69.57,21.66l-1.26.39a.37.37,0,0,1-.45-.22c-.12-.35-.23-.71-.32-1.07-.48,0-1.07,0-1.33-.48a1.51,1.51,0,0,1-.16-.48l-.44-2a2.21,2.21,0,0,1-.07-.72,1.46,1.46,0,0,1,.7-.93,3.12,3.12,0,0,1,2.82-.41,1.51,1.51,0,0,1,.68.44,2.37,2.37,0,0,1,.4,1.24l.17,1.22a1.63,1.63,0,0,1-.2,1.33c-.16.16-.4.24-.53.44S69.59,21.22,69.57,21.66Z" transform="translate(-1.37 -1.88)"/><path class="cls-22" d="M66,20.23a1.68,1.68,0,0,0,.86.93,2.42,2.42,0,0,0,1.41,0l.77-.14c.65-.12,1.27-.33,1.46-1.08a2.16,2.16,0,0,0,0-1.07.75.75,0,0,0-.13-.27.24.24,0,0,0-.25-.08c-.11,0-.15.17-.2.28a.59.59,0,0,1-.63.36.88.88,0,0,1-.22-.1L69,19a1.66,1.66,0,0,0-.9-.15c-.27,0-.67,0-.81.26L67,19.6a.45.45,0,0,1-.13.17.34.34,0,0,1-.19.09.42.42,0,0,1-.47-.16.62.62,0,0,1-.08-.24.39.39,0,0,0-.11-.21c-.24-.19-.22.19-.2.32A2.59,2.59,0,0,0,66,20.23ZM67.79,20a.77.77,0,0,0,.66-.06c.11-.06.2.12.09.18a.89.89,0,0,1-.81.07C67.62,20.13,67.67,19.93,67.79,20Z" transform="translate(-1.37 -1.88)"/><path class="cls-22" d="M65,15.89a4.25,4.25,0,0,1-.21-.49,1,1,0,0,0,.51-.06l-.06-.29a6,6,0,0,1,1.16-.4,3.86,3.86,0,0,1,2.44-.18,2.34,2.34,0,0,1,1.52,1.47,3.6,3.6,0,0,1-.09,2.36,4.7,4.7,0,0,0-.1-.84,1.94,1.94,0,0,0-.28-.48,2.26,2.26,0,0,0-.92-.63,4.33,4.33,0,0,0-1.75-.21,4.8,4.8,0,0,0-1.68.35c-.24.12-.26.19-.47,0A6,6,0,0,1,64.7,16Z" transform="translate(-1.37 -1.88)"/><polygon class="cls-24" points="65.29 19.58 63.56 20.16 58.83 27.02 59.18 28.35 60.91 28.35 65.29 19.58"/><polygon class="cls-28" points="49.55 21.08 48.97 20.93 47.87 21.57 44 27.83 44.29 29.56 48.39 26.86 49.55 21.08"/><polygon class="cls-22" points="54.37 55 54.43 55.6 53.33 56.36 52.69 55.83 53.21 55.15 54.3 54.4 54.37 55"/><polygon class="cls-27" points="54.34 36.56 54.52 38.39 52.88 44.68 54.41 54.8 53.28 55.19 50.33 45.31 49.86 42.44 49.87 36.35 54.34 36.56"/><polygon class="cls-27" points="45.71 38.6 48.07 55.55 49.14 55.55 49.34 44.68 51.29 37.06 45.71 38.6"/><polygon class="cls-22" points="49.14 55.41 49.14 56.02 47.98 56.63 47.4 56.02 47.98 55.41 49.14 55.41"/><path class="cls-28" d="M56,35.23C55.34,31,54.4,27,54.05,22.71c-.9,0-2.14-.5-3.08-.2h0a1.55,1.55,0,0,0-.86.75h0A7.83,7.83,0,0,0,49,25.42c-.91,2.63-4.58,18.13-4.64,22.16h0a14.4,14.4,0,0,0,2.49.65h0a40.59,40.59,0,0,0,7.76.42c.31,0,3.57.11,3.53-.13Q56.93,41.9,56,35.23Z" transform="translate(-1.37 -1.88)"/><polygon class="cls-28" points="52.55 20.94 53.47 21.51 56.12 28.63 55.83 30.31 54.22 30.2 51.89 22.84 52.55 20.94"/><path class="cls-22" d="M49.71,17.52s-.62.51-.33,2.38A11.77,11.77,0,0,1,49.5,23a1.34,1.34,0,0,0,1.11,0c.47-.29.64-.35.47-1.11s-.53-4.39-.53-4.39Z" transform="translate(-1.37 -1.88)"/><path class="cls-29" d="M51.37,18.15A1.92,1.92,0,0,0,50,19.74a1.67,1.67,0,0,1-.51-1.45A1.69,1.69,0,0,1,50.39,17a1.94,1.94,0,0,1,.93,1.13Z" transform="translate(-1.37 -1.88)"/><path class="cls-27" d="M49.81,19.11c.36-1.95,2.79-1.61,3.48,0,.4.9.3,2.64-.81,2.94a1.06,1.06,0,0,1-.17.61c-.14.12-.59,0-.76,0a.25.25,0,0,1-.14-.06.52.52,0,0,1,0-.29,2,2,0,0,1-.4-.08,1.9,1.9,0,0,1-1.14-1.28A3.87,3.87,0,0,1,49.81,19.11Z" transform="translate(-1.37 -1.88)"/><path class="cls-22" d="M50.32,17s-.24,1.06,1.11,1.35a2.23,2.23,0,0,1,2,2.46c-.24,1.11-1.23,1.93-.7,2.22a6.78,6.78,0,0,0,2.45,0s1.17-3.92-.41-5.62S50.9,15.69,50.32,17Z" transform="translate(-1.37 -1.88)"/><polygon class="cls-30" points="57.08 37.89 54.53 37.36 53.16 35.07 52.5 35.6 53.48 38.67 55.64 39.98 57.08 37.89"/><polygon class="cls-27" points="54.86 48.62 54.86 55.55 55.91 55.55 56.56 51.36 57.15 48.16 54.86 48.62"/><polygon class="cls-27" points="57.15 47.9 57.54 50.91 58.06 55.75 59.11 55.68 59.11 51.95 59.63 48.16 57.15 47.9"/><path class="cls-30" d="M58,39.67s-1.12-.2-1.58,1.5a53.81,53.81,0,0,0-1.76,9.29c-.07,2.62,1.63.92,3.66,1.25s3.7.36,3.7-.82S62.77,39.7,58,39.67Z" transform="translate(-1.37 -1.88)"/><path class="cls-27" d="M57.39,36.29c.92-1.64,3-.59,3.14,1,.08.92-.54,2.47-1.63,2.39-.07.15-.18.43-.34.49S58,40,57.88,40a.32.32,0,0,1-.1-.1.65.65,0,0,1,0-.28,1.86,1.86,0,0,1-.33-.19,1.8,1.8,0,0,1-.63-1.5A3.53,3.53,0,0,1,57.39,36.29Z" transform="translate(-1.37 -1.88)"/><path class="cls-22" d="M58.68,35.86s1.48.37,1.48,1c0,.93.06,1.55,0,2.11l1.05-.63.62-1.73s-.12-1.42-.87-1.66a19.9,19.9,0,0,0-2.28-.5l-1.17.37-.87-.06.3,2.6S57.32,35.49,58.68,35.86Z" transform="translate(-1.37 -1.88)"/><polygon class="cls-30" points="57.8 38.02 59.63 38.67 61.27 42.73 62.58 45.67 61.86 46.13 59.77 43.19 57.8 38.02"/><polygon class="cls-31" points="61.86 46.13 62.32 46.78 62.58 46.52 63.36 46.52 62.58 45.67 61.86 46.13"/><polygon class="cls-26" points="54.86 55.55 54.27 56.14 54.53 56.53 55.71 56.14 55.71 55.55 54.86 55.55"/><polygon class="cls-26" points="58.24 55.74 58.46 56.6 59.18 56.86 59.57 56.66 58.96 55.69 58.24 55.74"/><polygon class="cls-31" points="52.99 35.19 53.03 34.17 51.84 33.76 51.31 34.29 51.66 34.71 52.59 35.51 52.99 35.19"/><polygon class="cls-31" points="48.73 29.75 48.31 30.71 48.31 34.27 48.96 34.32 49.87 31.25 48.73 29.75"/><polygon class="cls-27" points="47.35 29.21 46.69 29.81 45.85 33.3 46.39 33.6 47.77 30.84 48.73 30.05 48.55 29.21 47.35 29.21"/><path class="cls-32" d="M54,25.85a1.27,1.27,0,0,1,.69.57,6.88,6.88,0,0,1,.5,3.51c-.29,1.26-.43,2.88-3.16,3.44-1.34.14-1.13-1-2.11-1.26S48,32,48.48,30.47s1.52-1.66,2.43-3.28S52.83,25.06,54,25.85Z" transform="translate(-1.37 -1.88)"/><polygon class="cls-32" points="52.98 24.14 55.04 25.37 56.66 25.97 56.48 26.69 54.8 26.57 53.12 25.85 52.98 24.14"/><polygon class="cls-31" points="56.63 26.08 57.56 26.16 57.56 26.33 57.1 26.56 57.16 26.68 56.5 26.61 56.63 26.08"/><polygon class="cls-32" points="50.95 23.51 49.21 23.75 47.96 22.98 47.65 23.39 48.73 24.59 49.99 24.95 50.95 23.51"/><path class="cls-22" d="M53.4,22.36a2.09,2.09,0,0,0-1.28,1.48A1.22,1.22,0,0,1,52,22.48c.45-.68.7-.93,1.37-.62S53.4,22.36,53.4,22.36Z" transform="translate(-1.37 -1.88)"/><path class="cls-27" d="M52.25,23.28c.45-1.48,2.3-1,2.71.26.23.72,0,2.07-.87,2.21,0,.13-.07.37-.18.45s-.46,0-.59-.09a.16.16,0,0,1-.1-.05.43.43,0,0,1,0-.24.86.86,0,0,1-.3-.09,1.46,1.46,0,0,1-.78-1.08A3,3,0,0,1,52.25,23.28Z" transform="translate(-1.37 -1.88)"/><path class="cls-22" d="M53.08,22.7c.4.66,1.22.87,1.61,1.51a1.58,1.58,0,0,1,0,1.23,1.39,1.39,0,0,0,1.42-.56c.57-.79.06-2.68.06-2.68a3.2,3.2,0,0,0-2.29-.93c-.48,0-1,.26-1,.8A1.06,1.06,0,0,0,53.08,22.7Z" transform="translate(-1.37 -1.88)"/><polygon class="cls-22" points="48.25 34.2 47.71 34.62 47.89 34.86 48.85 34.68 48.97 34.26 48.25 34.2"/><polygon class="cls-22" points="46.45 33.48 45.91 33.09 45.43 33.06 45.31 33.42 46.33 33.78 46.45 33.48"/><polygon class="cls-27" points="56.64 26.05 57.5 26.03 57.5 26.21 56.84 26.57 56.96 26.69 56.84 26.75 56.51 26.58 56.64 26.05"/><polygon class="cls-31" points="47.93 23.03 47.77 22.73 47.35 22.66 47.17 22.96 47.29 23.33 47.66 23.36 47.93 23.03"/><polygon class="cls-28" points="44.01 27.83 45.77 27.17 51.61 30.2 50.95 31.34 44.31 29.58 44.01 27.83"/><polygon class="cls-31" points="51.45 30.45 51.99 30.38 52.43 30.44 52.43 30.64 52.91 30.45 52.59 31.19 51.67 31.35 51.03 31.18 51.45 30.45"/><polygon class="cls-28" points="56.12 28.64 54.1 27.25 48.85 25.93 48.33 27.02 54.22 30.2 55.82 30.3 56.12 28.64"/><polygon class="cls-31" points="48.79 26.04 47.81 26.32 47.46 26.88 47.63 27.59 47.95 27.15 48.43 26.81 48.79 26.04"/><polygon class="cls-24" points="69.8 19.81 70.89 20.56 74.3 28.35 73.14 30.08 71.41 29.1 69.8 19.81"/><polygon class="cls-24" points="74.3 28.35 72.05 27.02 64.89 29.27 65.24 30.95 73.14 30.08 74.3 28.35"/><polygon class="cls-27" points="64.95 29.62 63.22 29.73 62.01 30.66 62.58 31.23 64.08 31 65.13 30.61 64.95 29.62"/><polygon class="cls-27" points="62.72 25.96 61.98 25.76 60.93 26.22 60.8 27.53 61.65 27.53 62.31 26.2 62.72 25.96"/></g></g></svg>